<svg xmlns="http://www.w3.org/2000/svg" viewBox="0 0 420 300">
  <defs><linearGradient id="g" x1="0" x2="1"><stop stop-color="#071018"/><stop offset="1" stop-color="#0f6b8f"/></linearGradient><filter id="s"><feDropShadow dx="0" dy="18" stdDeviation="16" flood-color="#000" flood-opacity=".55"/></filter></defs>
  <rect width="420" height="300" rx="18" fill="url(#g)"/>
  <circle cx="292" cy="137" r="86" fill="none" stroke="#0f6b8f" stroke-width="12" opacity=".45"/>
  <path d="M202 134c0-69 37-111 91-111s91 42 91 111" fill="none" stroke="#111820" stroke-width="26" stroke-linecap="round" filter="url(#s)"/>
  <path d="M211 134c0-60 32-97 82-97s82 37 82 97" fill="none" stroke="#0f6b8f" stroke-width="7" stroke-linecap="round"/>
  <rect x="178" y="118" width="70" height="104" rx="29" fill="#10151c" stroke="#0f6b8f" stroke-width="5" filter="url(#s)"/>
  <rect x="339" y="118" width="70" height="104" rx="29" fill="#10151c" stroke="#0f6b8f" stroke-width="5" filter="url(#s)"/>
  <rect x="27" y="58" width="160" height="184" rx="15" fill="#070b10" stroke="#27313b"/>
  <text x="46" y="92" fill="#0f6b8f" font-family="Manrope,Arial" font-size="13" font-weight="800" letter-spacing="1.7">LIMITED OFFER</text>
  <text x="46" y="130" fill="#fff" font-family="Manrope,Arial" font-size="31" font-weight="800">25% OFF</text>
  <text x="46" y="162" fill="#fff" font-family="Manrope,Arial" font-size="20" font-weight="700">Next Order</text>
  <rect x="46" y="188" width="76" height="28" rx="7" fill="#0f6b8f"/>
  <text x="62" y="207" fill="#fff" font-family="Manrope,Arial" font-size="11" font-weight="800">Shop Now</text>
</svg>